<svg viewBox="0 0 200.003 144.971" xmlns="http://www.w3.org/2000/svg" xmlns:xlink="http://www.w3.org/1999/xlink" width="200.003174" height="144.971344" fill="none" customFrame="#000000">
	<path id="Vector 1" d="M0.189159 -1.21164L5.0955 -0.445672C5.90326 -0.319566 6.24409 0.147367 6.11798 0.955128C5.99187 1.76289 5.52494 2.10372 4.71718 1.97761L-0.189159 1.21164L0.189159 -1.21164ZM19.8145 1.85223L29.6272 3.38417C30.435 3.51028 30.7758 3.97721 30.6497 4.78497C30.5236 5.59273 30.0566 5.93356 29.2489 5.80745L19.4362 4.27552C18.6284 4.14941 18.2876 3.68248 18.4137 2.87472C18.5398 2.06696 19.0068 1.72613 19.8145 1.85223ZM44.3462 5.68208L54.1589 7.21402C54.9667 7.34012 55.3075 7.80705 55.1814 8.61481C55.0553 9.42257 54.5883 9.7634 53.7806 9.6373L43.9679 8.10536C43.1601 7.97925 42.8193 7.51232 42.9454 6.70456C43.0715 5.8968 43.5385 5.55597 44.3462 5.68208ZM68.8779 9.51192L73.7843 10.2779C76.4915 10.7005 79.0785 11.4892 81.5451 12.6439C82.2855 12.9905 82.4824 13.534 82.1358 14.2745C81.7892 15.0149 81.2457 15.2118 80.5052 14.8652C78.2495 13.8092 75.8831 13.0879 73.4059 12.7012L68.4996 11.9352C67.6918 11.8091 67.351 11.3422 67.4771 10.5344C67.6032 9.72664 68.0702 9.38581 68.8779 9.51192ZM96.9648 30.6577C97.7252 33.2729 98.1054 35.9505 98.1054 38.6906C98.1054 41.4873 98.5337 44.2024 99.3904 46.8357C99.6433 47.6131 99.3811 48.1283 98.6036 48.3812C97.8262 48.6341 97.311 48.3719 97.0581 47.5944C96.1212 44.7146 95.6527 41.7466 95.6527 38.6906C95.6528 36.1834 95.3051 33.734 94.6097 31.3425C94.3814 30.5574 94.6598 30.0508 95.4449 29.8225C96.2299 29.5943 96.7365 29.8727 96.9648 30.6577ZM116.265 63.7098C118.898 64.5665 121.613 64.9948 124.41 64.9948L130.936 64.9948C131.753 64.9948 132.162 65.4036 132.162 66.2211C132.162 67.0387 131.753 67.4474 130.936 67.4474L124.41 67.4474C121.354 67.4474 118.386 66.979 115.506 66.0421L116.265 63.7098ZM150.514 64.9948L163.566 64.9948C164.384 64.9948 164.792 65.4036 164.792 66.2211C164.792 67.0387 164.384 67.4474 163.566 67.4474L150.514 67.4474C149.696 67.4474 149.288 67.0387 149.288 66.2211C149.288 65.4036 149.696 64.9948 150.514 64.9948ZM183.144 64.9948L189.67 64.9948C190.488 64.9948 190.897 65.4036 190.897 66.2211C190.897 67.0387 190.488 67.4474 189.67 67.4474L183.144 67.4474C182.327 67.4474 181.918 67.0387 181.918 66.2211C181.918 65.4036 182.327 64.9948 183.144 64.9948ZM187.936 66.2211L181.866 60.1512C181.381 59.6656 181.381 58.9025 181.866 58.4169C182.352 57.9313 183.115 57.9313 183.6 58.4169L190.538 65.354C191.023 65.8396 191.023 66.6027 190.538 67.0883L183.6 74.0254C183.115 74.511 182.352 74.5109 181.866 74.0254C181.381 73.5397 181.381 72.7767 181.866 72.2911L187.936 66.2211Z" fill="rgb(162.572,162.572,162.572)" fill-rule="nonzero" transform="matrix(0.908826,0.417176,-0.417176,0.908826,27.6259,1.02226)" />
</svg>
