<svg viewBox="0 0 26.1503 26.0498" xmlns="http://www.w3.org/2000/svg" xmlns:xlink="http://www.w3.org/1999/xlink" width="26.150330" height="26.049835" fill="none" customFrame="#000000">
	<defs>
		<linearGradient id="paint_linear_4" x1="19.9291706" x2="3.52283287" y1="-7.62939453e-06" y2="23.1428452" gradientUnits="userSpaceOnUse">
			<stop stop-color="rgb(255,100.175,50.4098)" offset="0" stop-opacity="1" />
			<stop stop-color="rgb(255,161.992,39.7848)" offset="1" stop-opacity="1" />
		</linearGradient>
	</defs>
	<path id="Polygon 1" d="M-0.571044 19.4785C0.0147428 20.0642 0.72185 20.3571 1.55028 20.3571L21.5926 20.3571C21.8559 20.3571 22.1147 20.3231 22.369 20.2549C22.6234 20.1868 22.8646 20.0869 23.0926 19.9552C23.81 19.541 24.2759 18.9338 24.4904 18.1336C24.7048 17.3334 24.6049 16.5746 24.1907 15.8571L14.1695 -1.5C14.0379 -1.72803 13.8789 -1.93513 13.6928 -2.12132C13.5066 -2.3075 13.2995 -2.46642 13.0714 -2.59808C12.354 -3.01229 11.5952 -3.11219 10.795 -2.89778C9.99477 -2.68336 9.38757 -2.21744 8.97335 -1.5L-1.0478 15.8571C-1.17945 16.0852 -1.27935 16.3263 -1.3475 16.5807C-1.41565 16.835 -1.44972 17.0938 -1.44972 17.3571C-1.44972 18.1856 -1.15683 18.8927 -0.571044 19.4785ZM21.5926 17.3571L18.1285 17.3571L5.01438 17.3571L1.55028 17.3571L3.28233 14.3571L11.5714 0L13.3035 3L19.8605 14.3571L21.5926 17.3571Z" fill="url(#paint_linear_4)" fill-rule="evenodd" transform="matrix(2.5327e-16,1,-1,2.5327e-16,23.1429,1.44974)" />
</svg>
